<svg xmlns="http://www.w3.org/2000/svg" width="337" height="149" viewBox="0 0 337 149">
    <g fill="#FFF" fill-opacity=".078" fill-rule="evenodd">
        <path d="M336.787 148.213h-67.774c-11.11-30.306-33.363-56.096-63.42-70.74l-.289-.157a33.05 33.05 0 0 1-14.77-43.541l.018-.104c6.411-13.048 20.679-20.447 34.784-17.96 1.533.27 2.843.608 3.95.91.715.126 1.31.338 1.719.41l1.533.27 1.358.666c37.635 18.47 67.598 48.166 86.686 85.752 7.255 14.308 12.666 29.215 16.205 44.494zM57.316 106.724c21.887-23.247 50.962-37.727 82.039-40.604 8.564-.847 16.42-4.926 22.059-11.538 5.78-6.803 8.455-15.33 7.648-24.044l-.03-.434C166.978 15.171 156.146 3.511 141.89.998c-2.479-.437-5.116-.581-8.259-.278l-.225.067C86.101 5.09 42.1 26.901 9.706 62.01 3.692 68.341.518 76.674.857 85.626c.29 8.622 3.966 16.77 10.233 22.91 4.56 4.34 10.532 7.322 16.73 8.415 10.883 1.705 22.203-2.085 29.497-10.227z"/>
    </g>
</svg>
